<?xml version="1.0" standalone="no"?>
<!DOCTYPE svg PUBLIC "-//W3C//DTD SVG 20010904//EN"
 "http://www.w3.org/TR/2001/REC-SVG-20010904/DTD/svg10.dtd">
<svg version="1.0" xmlns="http://www.w3.org/2000/svg"
 width="650.000000pt" height="650.000000pt" viewBox="0 0 650.000000 650.000000"
 preserveAspectRatio="xMidYMid meet">
<metadata>
Created by potrace 1.14, written by Peter Selinger 2001-2017
</metadata>
<g transform="translate(0.000000,650.000000) scale(0.100000,-0.100000)"
fill="#000000" stroke="none">
<path d="M2341 4848 c-13 -13 -21 -18 -17 -12 3 7 -1 15 -10 18 -8 3 -13 2
-10 -3 3 -5 -3 -11 -14 -14 -14 -4 -20 0 -20 11 0 14 -2 15 -9 3 -14 -21 -44
-24 -36 -3 5 13 2 13 -15 -3 -13 -12 -20 -14 -20 -5 0 10 -4 9 -17 -1 -14 -12
-16 -12 -8 0 6 11 4 13 -7 8 -9 -3 -21 0 -28 6 -10 9 -11 9 -5 -2 6 -11 4 -13
-9 -8 -14 6 -17 3 -12 -10 4 -12 -1 -9 -15 7 -11 14 -18 20 -15 13 4 -6 2 -14
-4 -18 -5 -3 -10 -1 -10 6 0 8 -4 8 -15 -1 -12 -10 -15 -10 -15 1 0 11 -2 11
-10 -1 -8 -12 -10 -12 -10 5 0 16 -2 17 -9 6 -13 -21 -91 -23 -91 -3 0 13 -3
12 -13 -3 -14 -18 -43 -12 -31 7 4 5 -5 2 -20 -7 -18 -12 -26 -14 -26 -5 0 10
-3 10 -15 0 -12 -10 -15 -10 -15 1 0 11 -2 11 -10 -1 -8 -12 -10 -12 -10 5 0
16 -2 17 -9 6 -5 -8 -28 -15 -50 -16 -32 -2 -41 2 -41 14 0 14 -2 14 -9 2 -14
-22 -111 -23 -111 -2 -1 13 -3 13 -11 -2 -9 -15 -13 -16 -27 -5 -12 10 -14 10
-8 1 4 -7 2 -13 -3 -13 -6 0 -11 5 -11 10 0 6 -5 10 -11 10 -5 0 -7 -6 -3 -12
4 -7 -2 -5 -13 5 -16 14 -23 15 -29 6 -4 -8 -3 -10 4 -5 7 4 12 3 12 -2 0 -5
-18 -8 -40 -8 -22 1 -40 6 -40 11 0 7 -3 7 -8 0 -8 -12 -42 -16 -42 -6 0 4 -7
8 -15 8 -9 0 -14 -6 -11 -13 3 -8 0 -11 -10 -7 -7 3 -14 10 -14 16 0 7 -4 7
-12 -1 -14 -14 -32 -16 -24 -4 3 5 -1 9 -9 9 -8 0 -15 -5 -15 -11 0 -6 -5 -4
-10 4 -5 8 -10 10 -10 4 0 -6 -7 -11 -15 -11 -8 0 -15 5 -15 10 0 5 -6 4 -14
-2 -11 -9 -15 -9 -19 1 -3 10 -9 8 -25 -5 -15 -14 -22 -15 -28 -6 -4 8 -3 10
4 5 7 -4 12 -2 12 3 0 14 -13 14 -28 -1 -9 -9 -12 -9 -12 3 0 12 -2 12 -10 -1
-7 -11 -10 -11 -10 -2 0 7 -5 10 -10 7 -6 -4 -7 -12 -4 -18 5 -8 3 -8 -7 1
-17 16 -34 16 -23 -1 5 -7 1 -4 -8 6 -17 18 -24 12 -19 -16 1 -5 -3 -6 -9 -2
-6 3 -8 10 -6 14 3 4 -1 8 -9 8 -8 0 -11 -5 -8 -10 4 -6 0 -8 -10 -4 -9 3 -19
2 -22 -3 -3 -5 -13 -7 -23 -4 -13 5 -14 4 -3 -4 9 -7 10 -12 2 -16 -6 -4 -8
-12 -5 -18 4 -6 1 -8 -7 -6 -8 3 -13 11 -11 17 1 7 -3 9 -9 6 -6 -4 -9 -16 -6
-26 3 -10 0 -17 -7 -16 -6 1 -11 -7 -11 -18 0 -14 -7 -20 -22 -19 -18 0 -20
-2 -12 -13 8 -9 8 -17 0 -27 -9 -11 -9 -15 1 -19 9 -4 7 -6 -4 -6 -9 -1 -20
-6 -24 -13 -4 -7 -3 -8 4 -4 7 4 12 2 12 -3 0 -6 -6 -11 -12 -11 -9 0 -9 -3 1
-9 24 -15 22 -39 -3 -34 -19 4 -18 3 4 -11 22 -13 22 -15 6 -16 -20 0 -20 0 0
-14 10 -8 16 -18 11 -22 -4 -4 -7 -2 -7 4 0 7 -5 12 -11 12 -7 0 -5 -10 5 -25
19 -28 15 -33 -8 -9 -9 8 -16 11 -16 5 0 -5 7 -17 16 -25 8 -9 11 -16 5 -16
-6 0 -11 -5 -11 -11 0 -6 9 -8 23 -4 20 5 20 5 -3 -9 -14 -8 -29 -12 -34 -9
-5 4 -6 1 -2 -5 4 -6 12 -9 19 -6 8 3 13 -5 14 -18 2 -16 0 -19 -6 -10 -6 10
-10 9 -13 -6 -4 -14 -2 -19 7 -16 7 3 15 -1 18 -9 3 -9 0 -14 -10 -13 -9 0
-17 -7 -18 -16 -3 -15 0 -16 18 -7 20 11 20 9 -3 -16 -14 -16 -19 -25 -12 -21
7 4 12 1 12 -9 0 -10 -5 -14 -12 -10 -7 4 -5 0 5 -8 18 -15 23 -37 8 -37 -11
0 -7 -30 8 -59 15 -26 14 -31 -5 -31 -8 0 -12 -5 -9 -10 4 -6 10 -8 14 -6 4 3
8 -1 8 -9 0 -10 -5 -11 -19 -4 -11 6 -18 6 -18 0 0 -5 10 -13 21 -16 16 -6 18
-9 8 -15 -7 -5 -18 -6 -24 -3 -5 4 -7 3 -3 -2 4 -4 2 -15 -4 -24 -7 -9 -2 -7
11 4 14 11 22 15 18 9 -3 -6 1 -24 9 -40 l14 -29 -20 24 c-23 26 -25 23 -9
-13 9 -19 9 -29 0 -40 -9 -11 -9 -16 0 -22 8 -5 9 -3 4 6 -5 9 -4 11 4 6 6 -4
9 -12 5 -17 -3 -5 -9 -7 -14 -4 -5 3 -12 0 -16 -6 -4 -7 -3 -9 4 -5 6 3 13 2
16 -3 4 -5 2 -12 -4 -16 -5 -3 -10 -12 -10 -18 0 -8 3 -8 9 1 6 11 10 10 15
-4 3 -9 4 -19 1 -22 -3 -3 -5 0 -5 6 0 6 -7 9 -16 5 -14 -5 -12 -8 7 -19 24
-13 24 -13 2 -14 -12 0 -25 -5 -29 -12 -4 -7 -3 -8 4 -4 7 4 20 2 29 -4 16
-11 16 -11 1 -6 -10 3 -20 0 -24 -6 -5 -7 -2 -8 6 -3 10 6 12 4 7 -8 -3 -10
-2 -17 3 -17 6 0 10 -5 10 -11 0 -5 -4 -8 -9 -4 -5 3 -12 1 -15 -4 -4 -5 -1
-13 5 -17 8 -5 9 -3 4 6 -5 8 -4 11 3 7 11 -7 11 -32 -1 -43 -11 -11 -8 -26 3
-19 6 3 10 1 10 -4 0 -6 -4 -11 -10 -11 -5 0 -10 -5 -10 -11 0 -5 4 -8 9 -5 5
4 8 -2 6 -11 -2 -10 -4 -22 -4 -26 -1 -5 -6 -5 -13 -1 -7 4 -8 3 -4 -5 4 -6
17 -9 29 -7 12 3 7 -1 -10 -9 -36 -17 -43 -26 -14 -18 10 3 22 0 25 -6 4 -6 1
-9 -7 -5 -8 3 -18 0 -23 -7 -4 -7 -3 -10 4 -5 6 4 11 -1 10 -11 0 -10 2 -28 5
-40 4 -14 0 -24 -10 -27 -12 -5 -13 -9 -3 -21 7 -8 9 -15 5 -15 -5 0 0 -9 10
-20 17 -18 17 -20 2 -14 -10 3 -17 1 -17 -5 0 -6 5 -11 11 -11 5 0 7 -5 4 -10
-5 -8 -12 -7 -23 2 -10 7 -6 0 7 -15 14 -15 20 -27 15 -27 -5 0 -2 -5 6 -11
12 -9 12 -10 -3 -5 -12 4 -17 2 -14 -6 2 -7 9 -12 14 -11 5 1 10 -4 10 -12 0
-10 -5 -11 -18 -4 -15 7 -17 6 -13 -6 4 -8 9 -15 13 -15 15 0 7 -30 -8 -31
-12 0 -11 -3 4 -9 14 -6 15 -9 5 -10 -10 -1 -9 -4 5 -10 18 -8 18 -9 2 -9 -15
-1 -16 -4 -6 -23 11 -21 11 -22 -5 -9 -14 12 -16 12 -10 -3 3 -9 10 -16 16
-16 5 0 6 -5 3 -10 -4 -6 -10 -8 -15 -5 -5 3 -3 -8 3 -24 7 -19 16 -27 26 -24
13 4 14 3 2 -5 -8 -6 -21 -8 -30 -5 -10 3 -8 0 4 -8 19 -12 19 -12 0 -20 -17
-7 -18 -8 -2 -8 20 -1 22 -21 4 -40 -10 -12 -9 -13 7 -7 19 7 19 6 2 -13 -14
-15 -15 -23 -6 -40 10 -19 7 -25 -11 -23 -3 1 -6 -6 -6 -13 0 -11 4 -12 14 -4
7 6 13 8 14 3 0 -5 2 -19 3 -32 2 -13 -1 -25 -5 -28 -5 -2 -6 -12 -3 -22 5
-15 4 -14 -10 2 -14 18 -15 18 -13 -2 0 -11 5 -18 9 -15 5 2 6 -8 3 -24 -5
-25 -4 -26 4 -5 14 30 23 28 11 -2 -5 -13 -6 -27 -3 -30 3 -3 -5 -3 -17 -1
-12 2 -19 1 -16 -3 4 -4 12 -8 17 -8 5 -1 13 -2 18 -3 5 0 12 -9 16 -18 5 -15
4 -16 -6 -5 -17 16 -26 15 -26 -3 0 -8 5 -15 10 -15 5 0 7 -9 4 -20 -3 -12 1
-23 10 -29 13 -7 13 -9 -1 -14 -10 -4 -13 -12 -9 -24 6 -16 5 -17 -13 -3 -17
14 -18 14 -6 -2 8 -9 10 -23 6 -29 -5 -8 -2 -10 8 -7 20 8 19 -23 -1 -39 -9
-7 -11 -13 -6 -13 6 0 3 -5 -5 -11 -13 -9 -13 -10 0 -6 8 2 14 10 12 16 -1 7
2 10 8 6 6 -4 7 -13 1 -23 -4 -9 -6 -23 -4 -30 3 -6 -1 -10 -9 -9 -7 2 -10 2
-5 0 4 -3 4 -10 1 -15 -4 -7 -2 -8 4 -4 7 4 12 2 12 -3 0 -6 -5 -11 -11 -11
-6 0 -4 -7 5 -15 18 -18 11 -45 -13 -45 -9 -1 -3 -7 14 -14 25 -10 27 -13 11
-19 -10 -4 -23 -4 -29 0 -7 4 -6 -1 2 -10 7 -9 17 -15 20 -12 4 2 8 -2 8 -9 0
-9 -7 -12 -16 -8 -9 3 -13 2 -9 -3 4 -4 3 -14 -3 -22 -9 -9 -8 -13 0 -13 6 0
11 5 11 10 0 6 5 10 10 10 7 0 7 -7 2 -17 -4 -10 -7 -29 -6 -43 1 -14 -3 -31
-10 -39 -9 -12 -8 -14 6 -8 12 4 15 2 11 -8 -3 -8 -9 -12 -14 -9 -5 3 -9 1 -9
-5 0 -5 9 -13 20 -16 20 -6 20 -7 -2 -27 -18 -15 -19 -18 -5 -14 15 5 16 2 7
-14 -10 -19 -6 -25 14 -21 5 1 4 -4 -2 -12 -7 -8 -8 -18 -4 -22 4 -5 0 -6 -9
-3 -9 4 -16 1 -16 -8 0 -7 4 -11 8 -8 4 2 7 -4 7 -13 0 -10 3 -26 7 -35 4 -11
3 -18 -5 -18 -6 0 -9 4 -6 9 3 5 -2 15 -11 22 -15 12 -16 12 -8 -1 13 -20 13
-33 0 -43 -6 -5 -2 -6 8 -3 12 4 17 2 14 -6 -2 -7 0 -21 5 -32 7 -12 6 -22 -2
-30 -8 -8 -10 -7 -5 5 3 9 -2 22 -12 30 -16 13 -17 12 -4 -4 8 -9 11 -20 8
-24 -4 -3 3 -18 13 -34 15 -20 17 -30 9 -35 -8 -5 -9 -3 -4 6 5 8 4 11 -2 7
-10 -6 -10 -73 0 -83 2 -3 7 2 11 11 4 11 2 14 -6 9 -7 -4 -8 -3 -4 5 11 18
25 3 18 -21 -3 -11 -1 -19 4 -16 5 3 18 -6 28 -21 20 -26 20 -26 0 -9 -12 10
-27 18 -35 17 -8 0 -4 -4 9 -10 13 -5 20 -13 17 -19 -4 -6 -3 -10 2 -9 20 3
34 -2 28 -11 -4 -6 -3 -10 2 -9 4 1 17 1 28 0 17 -1 18 -3 5 -11 -13 -8 -12
-10 3 -10 10 0 16 -4 13 -9 -7 -11 13 -9 33 3 11 7 13 5 9 -6 -4 -10 0 -14 13
-13 10 1 21 4 25 7 9 10 35 -3 28 -14 -4 -6 6 -2 22 8 22 14 26 15 17 3 -11
-13 -9 -15 10 -13 12 1 22 3 22 4 0 8 65 3 66 -5 0 -5 4 -1 9 10 5 11 9 15 9
8 1 -8 8 -10 19 -6 15 6 16 5 2 -13 -14 -18 -14 -18 6 -1 11 9 24 14 28 10 10
-10 37 -13 31 -3 -3 4 2 10 10 14 8 3 17 0 21 -6 5 -7 2 -8 -7 -3 -11 6 -12 5
-2 -5 11 -12 16 -11 29 6 8 10 13 14 10 7 -4 -6 -2 -14 4 -18 5 -3 10 2 11 12
0 16 1 16 9 -2 6 -13 9 -15 9 -5 1 13 3 13 10 1 7 -11 10 -10 14 5 5 19 5 19
6 0 1 -18 2 -18 20 -2 14 13 21 14 27 5 5 -8 3 -10 -6 -4 -9 5 -11 4 -6 -3 5
-9 13 -9 26 -2 23 12 33 13 26 2 -3 -5 1 -9 9 -9 8 0 12 3 10 7 -2 3 16 6 41
6 36 0 44 -3 39 -15 -4 -12 -2 -12 9 1 13 18 32 25 22 9 -8 -12 51 -6 67 8 10
8 19 7 33 -3 14 -11 22 -11 32 -3 10 8 16 7 23 -4 6 -10 9 -10 9 -1 0 6 5 12
11 12 5 0 7 -6 3 -12 -5 -9 -2 -9 9 1 9 7 17 9 17 4 0 -5 9 -9 20 -9 14 0 19
5 15 14 -4 12 0 11 19 -2 16 -10 27 -12 31 -5 5 6 12 6 23 -3 13 -11 15 -11
10 3 -5 13 -2 16 13 12 10 -3 17 -9 14 -12 -2 -4 2 -8 10 -8 8 0 12 3 10 7 -2
3 16 6 41 6 24 0 44 -4 44 -10 0 -5 7 -1 15 10 10 13 13 14 10 3 -7 -19 25
-19 48 0 12 9 17 9 23 0 5 -8 3 -9 -6 -4 -9 5 -11 4 -6 -3 5 -9 13 -9 26 -2
13 7 20 6 23 -3 4 -9 6 -9 6 1 1 6 10 12 22 12 13 0 18 -4 13 -12 -5 -8 -1 -8
10 1 15 13 19 13 27 0 6 -10 9 -11 9 -1 0 8 5 10 13 5 17 -10 60 -11 74 -1 6
5 14 5 17 -1 4 -6 13 -8 21 -5 8 4 12 10 9 15 -3 5 2 6 10 3 9 -3 14 -9 11
-13 -2 -4 2 -8 10 -8 8 0 12 4 9 9 -3 4 -1 8 5 8 5 0 13 -5 16 -10 4 -6 12 -7
18 -3 7 4 20 9 31 10 14 2 17 -1 12 -14 -6 -17 -5 -17 8 0 13 17 32 25 22 9
-6 -10 34 -10 50 1 6 3 14 3 18 0 10 -11 36 -12 36 -2 0 5 5 9 11 9 5 0 7 -6
3 -12 -6 -10 -5 -10 7 -1 12 10 18 10 29 0 10 -10 12 -9 7 5 -4 12 -2 15 8 11
8 -3 12 -10 8 -17 -4 -6 0 -6 9 2 13 10 17 10 21 0 4 -11 6 -10 6 0 1 8 6 10
14 5 17 -11 57 -12 63 -1 3 5 13 3 22 -4 12 -10 14 -10 8 0 -5 8 -1 12 13 12
10 0 22 -6 24 -12 4 -10 6 -10 6 0 1 8 6 10 14 5 18 -11 38 -13 31 -2 -6 11 9
12 20 2 10 -11 36 -12 36 -2 0 5 5 9 11 9 5 0 7 -6 3 -12 -4 -7 3 -4 15 6 21
19 21 19 15 1 -6 -14 -4 -16 7 -9 20 12 39 14 39 3 0 -6 5 -7 10 -4 6 4 8 12
4 18 -3 7 2 3 10 -7 9 -11 16 -15 16 -10 0 6 7 11 15 11 8 0 15 -5 15 -11 0
-5 7 -1 16 10 8 10 13 13 9 7 -3 -7 -3 -13 2 -14 4 0 19 -2 33 -5 19 -3 21 -2
10 6 -13 8 -12 10 3 10 9 0 17 -5 17 -11 0 -6 7 -3 16 5 20 21 25 20 17 -1 -6
-16 -5 -17 12 -3 11 9 16 10 11 3 -4 -7 -3 -13 3 -13 5 0 12 6 15 13 5 9 7 9
12 -1 3 -6 11 -9 17 -5 20 12 37 12 37 0 0 -8 3 -8 8 -2 9 13 35 13 44 1 4 -6
13 -4 22 3 11 9 16 10 16 2 0 -6 5 -11 11 -11 5 0 7 5 3 11 -4 7 1 7 16 -1 15
-8 20 -8 16 -1 -4 6 -2 11 3 11 6 0 11 -5 11 -11 0 -8 4 -8 14 0 11 9 15 9 19
-1 4 -10 6 -10 6 0 1 6 6 12 12 12 5 0 7 -6 3 -12 -5 -9 -2 -9 9 1 11 9 17 10
17 2 0 -6 5 -11 11 -11 5 0 8 3 6 8 -3 4 10 7 29 8 19 0 34 -4 34 -9 0 -5 6
-4 14 2 11 9 15 9 19 -1 4 -10 6 -10 6 0 1 6 6 12 12 12 5 0 7 -6 3 -12 -6
-10 -4 -10 8 0 13 10 17 10 22 0 5 -10 7 -10 12 0 3 6 10 12 15 12 6 0 8 -4 4
-9 -3 -6 6 -6 24 -1 25 7 29 6 24 -8 -4 -10 3 -6 15 8 12 14 22 21 21 15 -3
-23 2 -36 11 -30 6 4 8 11 5 16 -4 5 -2 9 4 9 5 0 12 -6 14 -12 4 -10 6 -10 6
0 1 6 6 12 12 12 5 0 8 -4 5 -9 -9 -14 19 -7 40 9 15 13 16 13 9 1 -6 -11 -4
-13 9 -8 10 4 15 3 11 -3 -3 -6 -2 -10 4 -10 5 0 12 6 15 13 5 9 7 9 12 0 3
-7 10 -13 15 -13 6 0 7 6 3 13 -6 9 -4 9 8 -1 12 -10 18 -10 23 -1 6 8 10 7
16 -2 6 -10 9 -11 9 -1 0 19 30 14 31 -5 0 -15 2 -15 7 -3 7 16 25 20 38 7 4
-4 16 1 26 10 16 14 18 15 13 1 -5 -12 0 -15 22 -13 15 2 37 6 47 11 12 5 17
4 13 -3 -3 -5 0 -10 8 -10 8 0 12 4 9 9 -3 4 -1 8 5 8 5 0 13 -5 16 -10 4 -6
12 -7 18 -3 20 13 41 12 49 0 5 -8 8 -6 8 6 0 9 5 17 11 17 5 0 8 -4 4 -9 -8
-15 15 -25 28 -12 16 16 50 14 41 -1 -6 -10 -4 -10 8 0 13 10 17 10 21 0 4 -8
6 -7 6 5 1 9 6 17 12 17 5 0 8 -4 4 -9 -3 -5 -1 -12 5 -16 5 -3 10 -1 10 6 0
8 5 7 17 -2 11 -10 14 -10 9 -1 -4 7 -2 12 8 12 8 0 17 -6 19 -12 4 -10 6 -10
6 0 1 6 10 12 22 12 13 0 18 -4 13 -12 -6 -10 -4 -10 8 0 13 10 17 10 21 0 4
-10 6 -10 6 0 1 6 6 12 12 12 5 0 7 -4 4 -10 -3 -6 1 -7 9 -4 9 3 13 10 10 15
-3 5 2 6 10 3 9 -3 13 -11 9 -18 -3 -6 -1 -6 8 2 15 14 33 17 25 4 -3 -5 1 -9
9 -9 8 0 12 4 9 9 -6 10 10 11 19 1 14 -14 102 -9 115 7 10 13 11 12 5 -5 -6
-19 -6 -19 14 -2 16 14 23 15 29 6 5 -8 3 -10 -6 -4 -8 5 -11 4 -7 -2 8 -13
73 -9 91 6 11 9 16 9 22 0 5 -8 3 -10 -7 -4 -12 7 -12 6 0 -6 10 -11 15 -11
18 -1 3 6 9 12 14 12 6 0 7 -6 3 -12 -6 -9 -3 -9 9 1 9 7 23 11 32 8 8 -4 17
-2 21 4 4 7 10 6 19 -1 17 -14 57 -22 50 -9 -4 5 1 9 10 9 9 0 13 -5 10 -10
-3 -5 -1 -10 4 -10 6 0 11 4 11 10 0 5 7 6 17 3 10 -4 14 -2 10 4 -4 6 3 8 18
5 14 -2 23 -8 20 -12 -3 -5 3 -7 12 -5 10 2 22 4 26 4 5 1 6 5 3 9 -3 5 8 6
24 4 17 -2 28 -7 26 -11 -2 -3 11 -6 30 -7 19 0 34 3 34 8 0 5 -4 6 -10 3 -6
-3 -10 -2 -10 4 0 5 9 9 19 8 11 0 17 -5 15 -9 -3 -4 0 -8 5 -8 6 0 11 4 11 9
0 4 10 8 23 7 15 -1 22 4 21 16 -1 10 4 14 12 11 8 -3 14 -10 14 -16 0 -6 3
-7 6 -4 4 4 1 14 -7 23 -13 16 -12 16 8 6 19 -11 21 -10 18 7 -2 12 2 18 13
17 11 -1 16 6 15 17 0 12 4 16 12 13 19 -7 40 20 24 30 -8 5 -9 3 -4 -6 6 -9
4 -11 -4 -6 -9 6 -9 12 3 25 19 21 21 35 4 25 -7 -4 -8 -3 -4 5 4 6 12 8 18 5
7 -5 9 2 4 22 -7 27 -6 28 7 9 14 -19 15 -18 10 8 -3 16 -10 24 -17 20 -8 -5
-8 -3 0 8 19 24 24 49 10 43 -7 -3 -13 1 -13 9 0 9 7 12 20 9 14 -4 18 -1 15
9 -3 8 -13 12 -23 11 -16 -3 -17 -1 -7 11 10 12 10 16 0 20 -8 3 -5 6 7 7 20
1 20 1 1 15 -11 8 -17 16 -13 16 4 1 11 2 16 3 5 0 13 5 18 10 5 5 3 6 -4 2
-7 -4 -13 -2 -13 4 0 6 -6 8 -12 4 -7 -4 -2 5 12 20 14 15 21 27 15 26 -21 -5
-32 1 -32 15 0 10 4 12 12 5 14 -11 14 25 0 37 -4 5 -5 2 -1 -5 4 -6 2 -12 -3
-12 -14 0 -14 13 1 28 7 7 8 12 2 12 -13 0 -12 46 0 57 5 5 6 2 1 -6 -6 -10
-4 -12 4 -6 9 5 9 11 3 17 -6 6 -8 17 -5 26 5 11 3 13 -8 7 -12 -8 -12 -6 0 8
11 14 11 17 0 18 -8 0 -5 4 6 9 11 5 14 9 6 9 -8 1 -11 8 -8 21 3 10 0 21 -7
23 -8 3 -7 9 3 18 12 12 13 12 6 0 -6 -10 -4 -12 4 -6 9 5 7 12 -8 26 -22 21
-26 30 -13 28 4 -1 14 -1 22 0 13 1 13 3 0 10 -8 6 -19 7 -25 3 -5 -3 -4 1 2
10 7 8 10 18 6 21 -3 4 -2 7 4 7 5 0 10 7 10 15 0 10 -6 14 -15 10 -12 -5 -13
-3 -2 10 7 9 10 18 7 22 -4 3 -1 13 6 21 10 13 9 15 -7 9 -16 -6 -17 -5 -7 7
7 8 9 21 5 28 -6 10 -3 9 9 -1 22 -18 22 -9 -2 17 -10 12 -22 18 -26 14 -5 -4
-5 -1 -1 6 6 9 11 10 20 3 9 -8 13 -7 13 4 0 8 -4 15 -9 15 -5 0 -6 5 -2 12
12 20 11 59 -2 54 -8 -3 -10 3 -6 16 4 15 7 17 14 6 6 -8 7 -4 2 12 -8 28 -8
33 1 74 5 26 4 28 -10 16 -20 -16 -20 -6 1 14 10 10 11 16 3 16 -9 0 -8 4 1
15 15 18 0 20 -20 3 -12 -11 -12 -10 -1 4 7 10 10 26 7 35 -5 15 -3 15 10 -2
l17 -20 -8 20 c-4 11 -7 28 -7 38 0 9 -3 15 -8 12 -6 -3 -7 1 -4 9 3 9 10 13
15 10 5 -3 9 0 9 5 0 6 -5 11 -11 11 -7 0 -8 7 -4 18 4 9 9 28 11 41 4 21 3
23 -11 11 -20 -16 -20 -6 1 14 10 10 11 16 3 16 -8 0 -8 5 2 17 8 9 9 14 4 11
-6 -4 -17 3 -25 15 -12 20 -12 21 3 8 10 -7 17 -10 18 -5 0 5 2 19 5 32 2 13
0 21 -5 18 -5 -3 -11 3 -14 13 -3 12 0 18 7 15 6 -2 12 5 13 16 1 11 -3 20 -8
20 -6 0 -7 -5 -3 -12 5 -7 3 -8 -6 -3 -10 6 -9 11 5 22 18 13 18 13 0 13 -18
0 -18 1 1 16 10 8 13 13 7 9 -8 -4 -13 0 -13 10 0 9 4 14 9 11 5 -4 8 2 6 11
-2 10 -4 21 -4 25 -1 4 -7 6 -13 4 -7 -1 -10 -1 -5 1 4 3 5 9 2 13 -3 5 0 12
6 16 8 4 9 3 5 -4 -5 -8 -1 -10 10 -5 15 5 15 7 0 15 -9 5 -14 13 -11 19 13
20 14 51 2 46 -14 -5 -16 38 -2 50 4 5 6 3 2 -2 -3 -6 -1 -17 5 -25 8 -12 9
-12 4 2 -3 10 -1 20 5 23 5 4 7 11 3 16 -3 5 -9 7 -13 5 -4 -3 -13 0 -21 6
-12 8 -12 9 2 4 10 -3 20 -1 23 4 4 6 1 10 -5 10 -6 0 -8 5 -4 12 11 18 11 78
0 71 -5 -4 -7 0 -3 9 3 9 0 21 -6 27 -9 9 -7 10 8 5 18 -7 19 -6 5 11 -9 11
-10 16 -2 11 6 -4 12 -2 12 3 0 6 -6 11 -12 11 -9 0 -8 4 2 10 10 6 11 10 3
10 -7 0 -13 5 -13 11 0 5 4 8 9 4 5 -3 13 0 17 6 4 8 3 9 -4 5 -7 -4 -12 -2
-12 4 0 6 -5 8 -12 4 -10 -6 -10 -4 -2 7 6 8 10 22 9 32 -2 9 1 15 6 11 5 -3
9 0 9 5 0 6 -6 11 -12 11 -10 0 -9 3 1 9 11 7 11 10 0 15 -8 3 -4 4 9 2 12 -2
20 0 16 5 -3 5 -11 9 -19 9 -19 0 -28 17 -14 26 8 5 9 3 4 -7 -8 -12 -6 -12 8
0 15 12 15 31 1 31 -3 0 -2 -5 2 -12 4 -6 3 -8 -3 -5 -11 7 -11 46 0 65 5 6 4
12 -1 12 -10 0 -9 30 1 47 4 7 0 16 -9 21 -15 8 -15 10 0 15 10 4 15 3 12 -1
-3 -5 1 -9 9 -9 13 0 13 3 0 17 -8 9 -12 20 -8 23 3 4 2 7 -3 7 -5 0 -10 12
-11 27 -1 19 1 22 8 12 7 -11 9 -11 9 3 0 9 -7 21 -16 26 -15 8 -15 10 0 15
11 5 15 3 10 -5 -4 -7 -3 -8 5 -4 8 6 9 12 2 20 -6 7 -8 16 -4 19 3 4 2 7 -3
7 -12 0 -12 60 -1 78 5 7 3 12 -5 13 -7 0 -4 4 7 9 l20 9 -20 0 c-17 1 -17 3
-5 11 8 5 10 10 3 10 -11 0 -12 24 0 36 3 3 -1 17 -9 29 -12 18 -12 25 -3 31
8 4 9 3 5 -4 -4 -7 -2 -12 4 -12 6 0 8 -4 5 -10 -3 -6 1 -7 10 -3 12 4 13 8 4
13 -6 5 -9 15 -6 23 4 11 1 14 -8 11 -10 -4 -13 0 -10 17 3 12 -1 29 -8 38 -9
12 -9 13 1 7 7 -4 12 -2 12 4 0 6 4 9 9 5 5 -3 13 -1 16 5 4 6 3 10 -2 9 -4
-1 -15 -1 -23 0 -12 1 -11 4 3 12 14 8 16 14 7 24 -7 8 -9 19 -5 26 4 6 1 15
-6 20 -12 7 -12 12 -1 30 8 11 10 19 5 16 -5 -3 -15 -2 -23 4 -13 7 -12 9 2 9
9 0 20 6 24 13 4 6 3 9 -1 4 -5 -4 -17 11 -27 33 -11 22 -23 38 -28 35 -6 -4
-10 -8 -10 -11 0 -3 5 -2 10 1 6 3 10 1 10 -5 0 -7 -6 -10 -12 -7 -7 2 -12 10
-10 16 1 7 -7 24 -18 38 -11 14 -20 22 -20 18 0 -5 8 -17 18 -29 17 -20 17
-20 -10 0 -14 10 -24 21 -22 23 2 2 -8 12 -24 21 -20 13 -31 15 -41 6 -12 -9
-13 -8 -6 3 6 11 4 13 -8 8 -10 -4 -17 -1 -17 6 0 8 -4 6 -10 -3 -9 -13 -10
-13 -11 0 0 10 -3 8 -9 -5 l-9 -20 0 20 c-1 17 -3 17 -11 5 -8 -12 -10 -12
-10 5 0 16 -2 17 -9 6 -11 -18 -39 -23 -47 -9 -4 6 -10 5 -15 -3 -7 -12 -9
-12 -9 0 0 11 -3 11 -15 1 -9 -7 -19 -10 -22 -6 -4 4 -1 11 7 16 8 6 10 10 4
10 -6 0 -17 -7 -24 -15 -9 -10 -17 -12 -23 -6 -6 6 -19 6 -34 0 -14 -5 -22 -5
-19 0 3 5 -1 11 -9 15 -8 3 -17 0 -21 -6 -5 -7 -2 -8 6 -3 9 5 11 4 6 -4 -5
-7 -13 -8 -19 -4 -15 10 -38 10 -54 0 -9 -5 -11 -3 -7 6 3 8 -1 14 -10 14 -8
0 -13 -4 -11 -8 3 -4 -2 -10 -11 -13 -8 -3 -13 -2 -10 3 3 5 -1 12 -10 15 -8
3 -13 2 -10 -3 7 -11 -14 -20 -32 -14 -6 3 -9 10 -5 16 4 7 -5 4 -19 -5 -19
-13 -29 -15 -34 -6 -4 7 -3 8 4 4 17 -10 15 -1 -4 14 -12 11 -15 11 -12 0 2
-7 -3 -15 -11 -18 -9 -3 -11 0 -6 9 5 8 5 11 0 7 -4 -4 -15 -2 -23 5 -10 7
-13 8 -9 1 10 -17 -60 -23 -89 -8 -15 8 -22 9 -18 3 4 -8 -7 -10 -35 -6 -35 4
-41 2 -36 -11 4 -12 1 -11 -16 4 -12 10 -19 13 -15 7 4 -7 2 -13 -3 -13 -6 0
-11 5 -11 10 0 7 -6 7 -18 1 -13 -7 -27 -6 -45 4 -19 10 -29 10 -33 3 -4 -6
-2 -8 4 -4 6 3 13 2 16 -3 7 -11 -13 -9 -33 3 -11 7 -13 5 -7 -9 6 -18 6 -18
-15 1 -12 10 -19 13 -15 7 4 -7 2 -13 -3 -13 -6 0 -11 5 -11 10 0 7 -6 7 -19
0 -25 -13 -34 -13 -26 0 3 6 1 10 -4 10 -6 0 -11 -5 -11 -12 0 -9 -3 -9 -12 0
-15 15 -28 15 -28 1 0 -5 5 -7 10 -4 6 3 10 1 10 -4 0 -16 -11 -13 -33 7 -11
9 -18 12 -14 7 3 -7 -7 -11 -28 -11 -19 0 -31 4 -28 10 3 5 2 6 -4 3 -5 -3
-28 -8 -52 -11 -39 -5 -42 -4 -29 12 11 15 11 15 -2 5 -8 -6 -19 -11 -23 -11
-5 0 -12 -4 -15 -8 -4 -4 -1 -4 7 1 10 6 12 4 7 -4 -6 -9 -11 -9 -22 0 -8 6
-14 9 -14 5 0 -3 -12 -1 -26 4 -23 9 -25 8 -20 -7 6 -14 4 -14 -15 3 -12 10
-19 14 -16 8 4 -7 -2 -14 -14 -17 -15 -4 -18 -2 -10 7 7 8 4 12 -10 12 -13 0
-18 -5 -14 -15 4 -10 -1 -9 -16 5 -22 19 -22 19 -15 0 6 -19 6 -19 -11 -3 -17
14 -22 15 -46 2 -19 -9 -29 -10 -33 -3 -5 7 -2 8 6 3 9 -6 11 -4 5 5 -6 10
-11 9 -22 -5 -12 -17 -13 -18 -13 -1 0 9 -5 14 -10 11 -23 -15 -70 -24 -64
-13 5 7 1 9 -9 5 -9 -3 -19 -2 -22 4 -4 5 -12 6 -18 2 -26 -16 -99 -23 -94 -9
3 6 -3 12 -13 12 -10 0 -17 -3 -14 -7 2 -4 -3 -10 -12 -13 -24 -9 -28 -7 -16
7 8 10 6 13 -8 13 -10 0 -17 -3 -14 -7 2 -4 -3 -10 -12 -13 -12 -5 -15 -2 -10
11 6 14 4 14 -15 -3 -12 -10 -19 -13 -15 -6 7 12 -7 17 -29 12 -5 -2 -19 -2
-30 -2 -10 1 -26 -4 -34 -11 -12 -9 -13 -9 -7 1 4 6 3 12 -1 12 -5 0 -15 -6
-22 -12 -11 -10 -12 -10 -7 -1 5 9 -3 12 -28 11 -19 -1 -33 -4 -31 -8 2 -4 -2
-7 -10 -7 -8 0 -12 4 -9 9 8 13 -10 10 -25 -4 -9 -8 -11 -8 -8 -2 4 7 0 15 -9
18 -8 3 -12 2 -9 -4 3 -6 3 -10 -2 -11 -49 -5 -75 -4 -79 3 -3 5 -11 5 -17 0
-13 -9 -24 -9 -48 2 -21 9 -51 4 -61 -9 -5 -6 -8 -5 -8 4 0 11 -3 11 -17 0
-11 -10 -14 -10 -9 -1 4 6 3 12 -1 12 -5 0 -15 -6 -22 -12 -11 -10 -13 -10 -7
0 8 14 -10 17 -19 2 -3 -5 -11 -10 -17 -10 -7 0 -6 5 1 14 9 11 9 16 0 22 -8
4 -9 3 -5 -4 4 -7 1 -12 -9 -12 -9 0 -14 -4 -11 -8 3 -5 -2 -9 -10 -9 -9 0
-13 6 -9 16 4 12 2 12 -9 -2 -10 -12 -15 -14 -18 -6 -3 8 -9 9 -19 4 -21 -14
-40 -15 -32 -2 4 6 0 8 -9 4 -9 -3 -21 0 -28 6 -10 9 -11 9 -6 0 4 -7 2 -13
-4 -13 -6 0 -8 -5 -4 -12 5 -7 3 -8 -5 -4 -7 5 -10 15 -6 24 5 13 3 13 -14 -2
-11 -10 -22 -13 -25 -8 -7 12 -25 10 -45 -2 -10 -6 -12 -5 -7 2 9 15 1 15 -26
1 -17 -9 -20 -9 -15 3 3 8 -1 15 -9 15 -7 0 -11 -4 -9 -8 3 -4 -2 -10 -11 -13
-24 -9 -28 -7 -16 7 8 10 5 12 -14 12 -13 -1 -27 -5 -31 -10 -5 -4 -2 -5 5 -1
6 4 12 2 12 -3 0 -14 -17 -14 -25 -1 -5 8 -12 7 -23 -2 -12 -10 -14 -10 -8 0
4 6 3 12 -1 12 -5 0 -15 -6 -22 -12 -8 -7 -11 -8 -8 -2 4 7 -6 11 -25 12 -24
1 -28 -2 -18 -8 9 -6 10 -10 3 -10 -6 0 -19 7 -27 16 -9 9 -16 11 -16 4 0 -6
-4 -9 -9 -6 -5 4 -12 0 -14 -6 -4 -10 -6 -9 -6 1 -1 11 -4 11 -18 0 -11 -10
-14 -10 -9 -1 7 12 -6 17 -17 5 -4 -3 -18 -8 -32 -9 -22 -2 -30 6 -26 29 2 11
-3 9 -28 -15z m-1431 -38 c0 -5 -5 -10 -11 -10 -5 0 -7 5 -4 10 3 6 8 10 11
10 2 0 4 -4 4 -10z m4807 -116 c2 -13 1 -15 -4 -4 -3 8 -11 19 -17 23 -7 6 -6
7 4 4 8 -2 16 -12 17 -23z m-4939 -419 c-3 -3 -9 2 -12 12 -6 14 -5 15 5 6 7
-7 10 -15 7 -18z m-1 -80 c0 -8 -4 -12 -9 -9 -5 3 -6 10 -3 15 9 13 12 11 12
-6z m0 -660 c0 -8 -4 -12 -9 -9 -5 3 -6 10 -3 15 9 13 12 11 12 -6z m-3 -81
c9 -24 2 -26 -12 -4 -7 11 -8 20 -3 20 5 0 12 -7 15 -16z m0 -340 c3 -8 2 -12
-4 -9 -6 3 -10 10 -10 16 0 14 7 11 14 -7z m0 -160 c3 -8 2 -12 -4 -9 -6 3
-10 10 -10 16 0 14 7 11 14 -7z m143 -1339 c0 -8 -4 -12 -9 -9 -5 3 -6 10 -3
15 9 13 12 11 12 -6z m1419 -27 c3 -4 -1 -5 -10 -4 -8 1 -18 5 -22 8 -3 4 1 5
10 4 8 -1 18 -5 22 -8z m468 4 c3 -5 -1 -9 -9 -9 -8 0 -12 4 -9 9 3 4 7 8 9 8
2 0 6 -4 9 -8z m1490 0 c3 -5 -1 -9 -9 -9 -8 0 -12 4 -9 9 3 4 7 8 9 8 2 0 6
-4 9 -8z m656 4 c0 -3 -4 -8 -10 -11 -5 -3 -10 -1 -10 4 0 6 5 11 10 11 6 0
10 -2 10 -4z"/>
<path d="M1706 4848 c3 -5 10 -6 15 -3 13 9 11 12 -6 12 -8 0 -12 -4 -9 -9z"/>
<path d="M3236 4852 c-3 -5 1 -9 9 -9 8 0 12 4 9 9 -3 4 -7 8 -9 8 -2 0 -6 -4
-9 -8z"/>
<path d="M3295 4849 c-3 -4 2 -6 10 -5 21 3 28 13 10 13 -9 0 -18 -4 -20 -8z"/>
<path d="M5747 4349 c7 -7 15 -10 18 -7 3 3 -2 9 -12 12 -14 6 -15 5 -6 -5z"/>
<path d="M5743 4249 c-2 -23 3 -25 10 -4 4 8 3 16 -1 19 -4 3 -9 -4 -9 -15z"/>
<path d="M747 4149 c7 -7 15 -10 18 -7 3 3 -2 9 -12 12 -14 6 -15 5 -6 -5z"/>
<path d="M740 3995 c0 -5 5 -17 10 -25 5 -8 10 -10 10 -5 0 6 -5 17 -10 25 -5
8 -10 11 -10 5z"/>
<path d="M5743 3765 c0 -8 4 -12 9 -9 5 3 6 10 3 15 -9 13 -12 11 -12 -6z"/>
<path d="M738 3518 c9 -9 9 -15 -1 -27 -11 -14 -10 -14 6 -2 13 10 15 17 6 27
-6 8 -14 14 -17 14 -3 0 -1 -5 6 -12z"/>
<path d="M757 2883 c-10 -9 -9 -33 1 -33 4 0 8 9 8 20 0 23 0 22 -9 13z"/>
<path d="M748 2633 c7 -3 16 -2 19 1 4 3 -2 6 -13 5 -11 0 -14 -3 -6 -6z"/>
<path d="M745 2540 c-3 -6 1 -7 9 -4 18 7 21 14 7 14 -6 0 -13 -4 -16 -10z"/>
<path d="M753 2385 c0 -8 4 -12 9 -9 5 3 6 10 3 15 -9 13 -12 11 -12 -6z"/>
<path d="M740 2220 c0 -5 5 -10 11 -10 5 0 7 5 4 10 -3 6 -8 10 -11 10 -2 0
-4 -4 -4 -10z"/>
<path d="M5740 2156 c0 -2 8 -10 18 -17 15 -13 16 -12 3 4 -13 16 -21 21 -21
13z"/>
<path d="M5736 1733 c-6 -14 -5 -15 5 -6 7 7 10 15 7 18 -3 3 -9 -2 -12 -12z"/>
<path d="M1660 1586 c0 -2 8 -10 18 -17 15 -13 16 -12 3 4 -13 16 -21 21 -21
13z"/>
</g>
</svg>
